<svg width="64" height="61" viewBox="0 0 64 61" fill="none" xmlns="http://www.w3.org/2000/svg">
<path fill-rule="evenodd" clip-rule="evenodd" d="M64.0028 0.789062H0V60.6985H64.0028V0.789062ZM15.9885 39.0709H22.4389V44.1324H15.9885C12.3611 44.1324 9.20595 42.0835 7.60588 39.0709C6.89147 37.7255 6.4867 36.1901 6.4867 34.5589C6.4867 32.9276 6.89147 31.3922 7.60588 30.0486C9.20595 27.0343 12.3594 24.9853 15.9885 24.9853H24.9506V30.0486H15.9885C13.5166 30.0486 11.5118 32.0666 11.5118 34.5589C11.5118 37.0511 13.5166 39.0709 15.9885 39.0709ZM52.24 44.1331H57.5159L48.7164 20.2309C48.0816 18.5038 46.421 17.3553 44.5649 17.3553C42.7088 17.3553 41.0499 18.5038 40.4134 20.2309L32.5998 41.4577L28.8687 35.5095C28.8698 35.509 28.8708 35.5084 28.8717 35.5078C28.8737 35.5067 28.8756 35.5055 28.879 35.5044C30.5154 34.6451 31.8699 33.3408 32.7711 31.7609C33.546 30.4035 33.9871 28.8527 33.9871 27.1787C33.9871 25.5047 33.5391 23.9316 32.7555 22.5691C31.3561 20.1351 28.8825 18.3669 25.9609 17.8756C25.8536 17.8568 25.7446 17.8397 25.6357 17.8243C25.5267 17.8106 25.416 17.7986 25.3053 17.7866L25.3053 17.7866C25.2895 17.7851 25.2734 17.7834 25.2571 17.7818C25.2182 17.7777 25.1782 17.7736 25.1392 17.7712C25.1168 17.7695 25.0942 17.7677 25.0716 17.7659C25.0243 17.762 24.9767 17.7581 24.9299 17.7558C24.9053 17.7546 24.881 17.7532 24.8568 17.7518C24.8111 17.7492 24.7658 17.7466 24.7206 17.7455C24.6497 17.7404 24.5787 17.7387 24.5095 17.7387C24.4386 17.737 24.3677 17.7353 24.2968 17.7353H9.77161V22.6393H24.2968C26.869 22.6393 28.9534 24.6711 28.9534 27.1787C28.9534 29.4467 27.2513 31.3244 25.0216 31.6651C24.7863 31.701 24.5441 31.7198 24.2968 31.7198C24.0494 31.7198 23.8072 31.701 23.572 31.6651H17.2651V36.6615H23.6965L28.386 44.1331H36.9313L39.18 37.8956L40.5639 34.2155L41.9477 30.2786L44.5822 23.3667L47.3101 30.7921L47.637 31.6633H42.8178V36.6649H49.4689L49.9048 37.8956L50.0778 38.4092L52.24 44.1331Z" fill="#DB2B2E"/>
</svg>
