<svg width="293" height="61" viewBox="0 0 293 61" fill="none" xmlns="http://www.w3.org/2000/svg">
<path fill-rule="evenodd" clip-rule="evenodd" d="M64.0028 0.789062H0V60.6985H64.0028V0.789062ZM15.9885 39.0709H22.4389V44.1324H15.9885C12.3611 44.1324 9.20595 42.0835 7.60588 39.0709C6.89147 37.7255 6.4867 36.1901 6.4867 34.5589C6.4867 32.9276 6.89147 31.3922 7.60588 30.0486C9.20595 27.0343 12.3594 24.9853 15.9885 24.9853H24.9506V30.0486H15.9885C13.5166 30.0486 11.5118 32.0666 11.5118 34.5589C11.5118 37.0511 13.5166 39.0709 15.9885 39.0709ZM52.24 44.1331H57.5159L48.7164 20.2309C48.0816 18.5038 46.421 17.3553 44.5649 17.3553C42.7088 17.3553 41.0499 18.5038 40.4134 20.2309L32.5998 41.4577L28.8687 35.5095C28.8698 35.509 28.8708 35.5084 28.8717 35.5078C28.8737 35.5067 28.8756 35.5055 28.879 35.5044C30.5154 34.6451 31.8699 33.3408 32.7711 31.7609C33.546 30.4035 33.9871 28.8527 33.9871 27.1787C33.9871 25.5047 33.5391 23.9316 32.7555 22.5691C31.3561 20.1351 28.8825 18.3669 25.9609 17.8756C25.8536 17.8568 25.7446 17.8397 25.6357 17.8243C25.5267 17.8106 25.416 17.7986 25.3053 17.7866L25.3053 17.7866C25.2895 17.7851 25.2734 17.7834 25.2571 17.7818C25.2182 17.7777 25.1782 17.7736 25.1392 17.7712C25.1168 17.7695 25.0942 17.7677 25.0716 17.7659C25.0243 17.762 24.9767 17.7581 24.9299 17.7558C24.9053 17.7546 24.881 17.7532 24.8568 17.7518C24.8111 17.7492 24.7658 17.7466 24.7206 17.7455C24.6497 17.7404 24.5787 17.7387 24.5095 17.7387C24.4386 17.737 24.3677 17.7353 24.2968 17.7353H9.77161V22.6393H24.2968C26.869 22.6393 28.9534 24.6711 28.9534 27.1787C28.9534 29.4467 27.2513 31.3244 25.0216 31.6651C24.7863 31.701 24.5441 31.7198 24.2968 31.7198C24.0494 31.7198 23.8072 31.701 23.572 31.6651H17.2651V36.6615H23.6965L28.386 44.1331H36.9313L39.18 37.8956L40.5639 34.2155L41.9477 30.2786L44.5822 23.3667L47.3101 30.7921L47.637 31.6633H42.8178V36.6649H49.4689L49.9048 37.8956L50.0778 38.4092L52.24 44.1331Z" fill="white"/>
<path d="M88.5661 16.871H91.6263C91.4159 17.8312 91.0525 18.6973 90.5361 19.4693C89.6754 20.7685 88.1071 22.0488 85.5059 22.0488C81.891 22.0488 79.0029 19.2434 79.0029 15.2705C79.0029 11.2977 81.891 8.49219 85.5059 8.49219C88.0879 8.49219 89.618 9.75371 90.4979 11.0341C91.0143 11.7872 91.3777 12.6345 91.6263 13.5759H88.5661C88.4322 13.1805 88.241 12.8228 87.9732 12.5027C87.5142 11.9567 86.7491 11.4106 85.5059 11.4106C83.5933 11.4106 82.0631 12.9169 82.0631 15.2705C82.0631 17.6241 83.5933 19.1304 85.5059 19.1304C86.8065 19.1304 87.5715 18.5844 88.0114 18.0007C88.2601 17.6806 88.4513 17.304 88.5661 16.871ZM93.5477 21.8606V8.68048H96.6079V13.6701H101.772V8.68048H104.832V21.8606H101.772V16.7768H96.6079V21.8606H93.5477ZM106.084 21.8606L110.674 8.68048H115.073L119.664 21.8606H116.317L115.456 19.2245H110.292L109.431 21.8606H106.084ZM111.153 16.5885H114.595L113.065 11.8813H112.683L111.153 16.5885ZM120.91 21.8606V8.68048H127.222C129.804 8.68048 131.621 10.4692 131.621 13.1994C131.621 15.2517 130.684 16.2684 129.747 16.8333C129.192 17.1534 128.58 17.3605 127.892 17.4358L132.004 21.8606H128.179L124.353 17.6241H123.971V21.8606H120.91ZM123.971 14.8939H127.031C127.892 14.8939 128.561 14.2538 128.561 13.1994C128.561 12.145 127.892 11.5048 127.031 11.5048H123.971V14.8939ZM133.909 21.8606V8.68048H136.97V18.9421H142.994V21.8606H133.909ZM144.612 21.8606V8.68048H153.792V11.4106H147.672V13.9525H153.41V16.5885H147.672V19.1304H153.792V21.8606H144.612ZM155.315 17.53H158.376C158.376 18.5844 159.236 19.4128 160.862 19.4128C162.488 19.4128 163.157 18.7538 163.157 18.0007C163.157 17.3417 162.698 16.8709 161.244 16.5885L159.141 16.2119C156.75 15.7789 155.602 14.6303 155.602 12.5404C155.602 10.2809 157.4 8.49219 160.671 8.49219C164.209 8.49219 166.122 10.3751 166.122 13.0111H163.062C163.062 11.9755 162.182 11.1282 160.671 11.1282C159.313 11.1282 158.662 11.7872 158.662 12.5404C158.662 13.1994 159.045 13.5383 160.288 13.7642L162.392 14.1408C165.07 14.6115 166.217 15.7412 166.217 18.0007C166.217 20.2601 164.4 22.0488 160.862 22.0488C157.324 22.0488 155.315 20.0718 155.315 17.53ZM167.74 23.5551L168.219 18.7538H171.374L170.036 23.5551H167.74Z" fill="white"/>
<path d="M79.0029 39.9713V26.8245H85.3102C87.8905 26.8245 89.7062 28.6087 89.7062 31.332C89.7062 33.3791 88.7697 34.3933 87.8331 34.9568C87.2789 35.276 86.6672 35.4826 85.9792 35.5578L90.0885 39.9713H86.2659L82.4433 35.7456H82.061V39.9713H79.0029ZM82.061 33.0223H85.1191C85.9792 33.0223 86.6481 32.3837 86.6481 31.332C86.6481 30.2803 85.9792 29.6417 85.1191 29.6417H82.061V33.0223ZM91.9946 39.9713V26.8245H101.169V29.5478H95.0526V32.0832H100.787V34.7126H95.0526V37.2481H101.169V39.9713H91.9946ZM103.455 39.9713V26.8245H107.182L111.387 34.7126H111.77V26.8245H114.828V39.9713H111.101L106.896 32.0832H106.513V39.9713H103.455ZM116.746 35.6517H119.804C119.804 36.7034 120.664 37.5298 122.289 37.5298C123.913 37.5298 124.582 36.8724 124.582 36.1212C124.582 35.4638 124.123 34.9943 122.671 34.7126L120.568 34.337C118.179 33.905 117.033 32.7594 117.033 30.6747C117.033 28.4209 118.829 26.6367 122.097 26.6367C125.633 26.6367 127.545 28.5148 127.545 31.1442H124.487C124.487 30.1112 123.607 29.2661 122.097 29.2661C120.74 29.2661 120.091 29.9234 120.091 30.6747C120.091 31.332 120.473 31.6701 121.715 31.8954L123.818 32.2711C126.493 32.7406 127.64 33.8675 127.64 36.1212C127.64 38.3749 125.825 40.1591 122.289 40.1591C118.753 40.1591 116.746 38.1871 116.746 35.6517ZM129.736 39.9713V26.8245H132.794V31.8015H137.954V26.8245H141.012V39.9713H137.954V34.9004H132.794V39.9713H129.736ZM142.263 39.9713L146.851 26.8245H151.247L155.834 39.9713H152.489L151.629 37.342H146.468L145.608 39.9713H142.263ZM147.328 34.7126H150.769L149.24 30.0173H148.857L147.328 34.7126ZM158.715 39.9713L155.465 26.8245H158.81L160.721 34.8065H161.104L163.206 26.8245H166.455L168.558 34.8065H168.94L170.851 26.8245H174.196L170.947 39.9713H167.029L165.022 32.0832H164.64L162.633 39.9713H158.715ZM181.162 33.5857L181.926 33.0223L181.257 32.2711C180.76 31.7264 180.206 31.1254 180.206 29.9234C180.206 28.1392 181.735 26.6367 184.124 26.6367C186.513 26.6367 188.043 28.1392 188.043 30.0173C188.043 31.501 187.278 32.2898 186.609 32.7406L185.558 33.4918L187.565 35.5578C187.66 35.3887 187.756 35.2197 187.851 35.0131C187.985 34.6938 188.138 34.2431 188.138 33.7735H190.718C190.718 34.9004 190.374 35.8019 190.049 36.4593C189.839 36.8349 189.629 37.1542 189.38 37.4359L191.865 39.9713H188.52L187.565 38.9384C187.259 39.1825 186.915 39.3891 186.552 39.5581C185.921 39.8586 185.023 40.1591 184.029 40.1591C181.104 40.1591 179.537 38.5815 179.537 36.5907C179.537 34.9943 180.187 34.337 181.162 33.5857ZM183.933 31.7076L184.602 31.332C185.08 31.0503 185.367 30.7874 185.367 30.2051C185.367 29.5478 184.889 29.0783 184.124 29.0783C183.36 29.0783 182.882 29.5478 182.882 30.2051C182.882 30.6747 183.169 30.9564 183.455 31.2381L183.933 31.7076ZM185.94 37.2481L183.647 34.8065L183.169 35.0882C182.691 35.3699 182.309 35.7456 182.309 36.4968C182.309 37.2481 182.863 37.8115 183.933 37.8115C184.602 37.8115 185.08 37.68 185.443 37.5298C185.634 37.4546 185.806 37.3607 185.94 37.2481ZM196.449 39.9713L201.036 26.8245H205.432L210.019 39.9713H206.674L205.814 37.342H200.654L199.794 39.9713H196.449ZM201.514 34.7126H204.954L203.425 30.0173H203.043L201.514 34.7126ZM211.265 39.9713V26.8245H217.763C220.152 26.8245 221.681 28.327 221.681 30.4868C221.681 31.4447 221.318 32.1396 220.955 32.6091C220.745 32.8908 220.496 33.1162 220.248 33.304V33.3979C220.554 33.6045 220.821 33.8299 221.051 34.1116C221.452 34.6187 221.872 35.3136 221.872 36.309C221.872 38.4688 220.343 39.9713 217.954 39.9713H211.265ZM214.323 32.0832H217.285C218.05 32.0832 218.623 31.5198 218.623 30.7686C218.623 30.0173 218.05 29.4539 217.285 29.4539H214.323V32.0832ZM214.323 37.342H217.477C218.241 37.342 218.814 36.7785 218.814 36.0273C218.814 35.276 218.241 34.7126 217.477 34.7126H214.323V37.342ZM224.163 39.9713V26.8245H230.47C233.05 26.8245 234.866 28.6087 234.866 31.332C234.866 33.3791 233.929 34.3933 232.993 34.9568C232.439 35.276 231.827 35.4826 231.139 35.5578L235.248 39.9713H231.426L227.603 35.7456H227.221V39.9713H224.163ZM227.221 33.0223H230.279C231.139 33.0223 231.808 32.3837 231.808 31.332C231.808 30.2803 231.139 29.6417 230.279 29.6417H227.221V33.0223ZM235.721 39.9713L240.308 26.8245H244.704L249.291 39.9713H245.946L245.086 37.342H239.926L239.065 39.9713H235.721ZM240.786 34.7126H244.226L242.697 30.0173H242.315L240.786 34.7126ZM250.537 39.9713V26.8245H253.595V31.8015H258.755V26.8245H261.813V39.9713H258.755V34.9004H253.595V39.9713H250.537ZM263.064 39.9713L267.652 26.8245H272.048L276.635 39.9713H273.29L272.43 37.342H267.269L266.409 39.9713H263.064ZM268.129 34.7126H271.57L270.041 30.0173H269.658L268.129 34.7126ZM277.881 39.9713V26.8245H282.563L285.239 34.9943H285.621L288.297 26.8245H292.98V39.9713H289.922V31.8954H289.539L286.864 39.9713H283.997L281.321 31.8954H280.939V39.9713H277.881Z" fill="white"/>
<path d="M82.6237 50.7558H83.3612C83.2003 51.5137 82.5164 52.4783 81.2491 52.4783C79.9819 52.4783 79.0029 51.4792 79.0029 49.9979C79.0029 48.5166 80.0154 47.5176 81.2491 47.5176C82.4828 47.5176 83.1668 48.3444 83.3612 49.2056H82.6237C82.389 48.5511 81.8459 48.2066 81.2491 48.2066C80.3708 48.2066 79.707 48.8955 79.707 49.9979C79.707 51.1003 80.3708 51.7893 81.2491 51.7893C82.0202 51.7893 82.4627 51.2725 82.6237 50.7558ZM89.5667 52.4783C88.333 52.4783 87.3206 51.4792 87.3206 49.9979C87.3206 48.5166 88.333 47.5176 89.5667 47.5176C90.8005 47.5176 91.8129 48.5166 91.8129 49.9979C91.8129 51.4792 90.8005 52.4783 89.5667 52.4783ZM89.5667 48.2066C88.6884 48.2066 88.0246 48.8955 88.0246 49.9979C88.0246 51.1003 88.6884 51.7893 89.5667 51.7893C90.4451 51.7893 91.1089 51.1003 91.1089 49.9979C91.1089 48.8955 90.4451 48.2066 89.5667 48.2066ZM96.0354 52.4094V47.5865H98.1475C98.9186 47.5865 99.5221 48.1997 99.5221 49.1367C99.5221 50.0737 98.9186 50.6869 98.1475 50.6869H97.9799L99.6562 52.4094H98.751L97.0747 50.6869H96.7395V52.4094H96.0354ZM96.7395 49.9979H98.114C98.4895 49.9979 98.818 49.6534 98.818 49.1367C98.818 48.6199 98.4895 48.2755 98.114 48.2755H96.7395V49.9979ZM104.521 49.9979H105.895C106.271 49.9979 106.599 49.6534 106.599 49.1367C106.599 48.6199 106.271 48.2755 105.895 48.2755H104.521V49.9979ZM103.817 52.4094V47.5865H105.929C106.7 47.5865 107.303 48.1997 107.303 49.1367C107.303 50.0737 106.7 50.6869 105.929 50.6869H104.521V52.4094H103.817ZM113.571 52.4783C112.337 52.4783 111.325 51.4792 111.325 49.9979C111.325 48.5166 112.337 47.5176 113.571 47.5176C114.805 47.5176 115.817 48.5166 115.817 49.9979C115.817 51.4792 114.805 52.4783 113.571 52.4783ZM113.571 48.2066C112.692 48.2066 112.029 48.8955 112.029 49.9979C112.029 51.1003 112.692 51.7893 113.571 51.7893C114.449 51.7893 115.113 51.1003 115.113 49.9979C115.113 48.8955 114.449 48.2066 113.571 48.2066ZM120.04 52.4094V47.5865H122.152C122.923 47.5865 123.526 48.1997 123.526 49.1367C123.526 50.0737 122.923 50.6869 122.152 50.6869H121.984L123.66 52.4094H122.755L121.079 50.6869H120.744V52.4094H120.04ZM120.744 49.9979H122.118C122.494 49.9979 122.822 49.6534 122.822 49.1367C122.822 48.6199 122.494 48.2755 122.118 48.2755H120.744V49.9979ZM127.318 52.4094L129.028 47.5865H130.1L131.81 52.4094H131.039L130.637 51.2725H128.491L128.089 52.4094H127.318ZM128.726 50.618H130.402L129.631 48.4133H129.497L128.726 50.618ZM136.438 52.4094V48.2755H134.963V47.5865H138.618V48.2755H137.142V52.4094H136.438ZM142.674 52.4094V47.5865H145.758V48.2755H143.378V49.6534H145.624V50.3424H143.378V51.7204H145.758V52.4094H142.674ZM149.847 52.995L149.981 51.617H150.752L150.383 52.995H149.847ZM160.748 51.7204H161.686C162.565 51.7204 163.229 51.0245 163.229 49.9979C163.229 48.9713 162.565 48.2755 161.686 48.2755H160.748V51.7204ZM160.044 52.4094V47.5865H161.686C162.96 47.5865 163.933 48.5924 163.933 49.9979C163.933 51.4035 162.96 52.4094 161.686 52.4094H160.044ZM168.158 52.4094V47.5865H168.862V52.4094H168.158ZM173.051 50.9281H173.755C173.755 51.3759 174.198 51.7893 174.895 51.7893C175.666 51.7893 175.968 51.4792 175.968 51.0659C175.968 50.7145 175.7 50.4802 175.164 50.3769L174.258 50.2046C173.514 50.0668 173.152 49.5914 173.152 48.93C173.152 48.1377 173.789 47.5176 174.828 47.5176C176.002 47.5176 176.605 48.2066 176.605 49.0678H175.901C175.901 48.62 175.499 48.2066 174.828 48.2066C174.158 48.2066 173.856 48.5442 173.856 48.93C173.856 49.24 174.05 49.4812 174.56 49.5845L175.298 49.7223C176.243 49.8946 176.672 50.3011 176.672 51.0659C176.672 51.8306 176.069 52.4783 174.895 52.4783C173.722 52.4783 173.051 51.7893 173.051 50.9281ZM181.6 49.9979H182.975C183.35 49.9979 183.679 49.6534 183.679 49.1367C183.679 48.6199 183.35 48.2755 182.975 48.2755H181.6V49.9979ZM180.896 52.4094V47.5865H183.008C183.779 47.5865 184.383 48.1997 184.383 49.1367C184.383 50.0737 183.779 50.6869 183.008 50.6869H181.6V52.4094H180.896ZM188.572 50.4802V47.5865H189.276V50.4802C189.276 51.2726 189.779 51.7893 190.449 51.7893C191.12 51.7893 191.623 51.2726 191.623 50.4802V47.5865H192.327V50.4802C192.327 51.6928 191.556 52.4783 190.449 52.4783C189.343 52.4783 188.572 51.6928 188.572 50.4802ZM197.827 52.4094V48.2755H196.351V47.5865H200.006V48.2755H198.531V52.4094H197.827ZM204.062 52.4094V47.5865H207.147V48.2755H204.766V49.6534H207.013V50.3424H204.766V51.7204H207.147V52.4094H204.062ZM211.202 50.9281H211.906C211.906 51.3759 212.348 51.7893 213.045 51.7893C213.816 51.7893 214.118 51.4792 214.118 51.0659C214.118 50.7145 213.85 50.4802 213.314 50.3769L212.408 50.2046C211.664 50.0668 211.302 49.5914 211.302 48.93C211.302 48.1377 211.939 47.5176 212.978 47.5176C214.152 47.5176 214.755 48.2066 214.755 49.0678H214.051C214.051 48.62 213.649 48.2066 212.978 48.2066C212.308 48.2066 212.006 48.5442 212.006 48.93C212.006 49.24 212.201 49.4812 212.71 49.5845L213.448 49.7223C214.393 49.8946 214.822 50.3011 214.822 51.0659C214.822 51.8306 214.219 52.4783 213.045 52.4783C211.872 52.4783 211.202 51.7893 211.202 50.9281ZM224.446 50.0668L224.68 49.8601L224.412 49.5845C224.144 49.3089 224.043 49.1022 224.043 48.6889C224.043 48.0274 224.546 47.5176 225.317 47.5176C226.088 47.5176 226.591 48.0688 226.591 48.7233C226.591 49.2056 226.29 49.5225 226.021 49.7223L225.653 49.9979L226.591 51.0314C226.632 50.9418 226.672 50.8454 226.705 50.7489C226.766 50.5836 226.826 50.3631 226.826 50.1357H227.53C227.53 50.5491 227.409 50.8936 227.295 51.1348C227.222 51.2794 227.148 51.4035 227.061 51.5137L227.899 52.4094H226.994L226.591 51.9615C226.484 52.058 226.363 52.1476 226.229 52.2234C225.995 52.3543 225.693 52.4783 225.317 52.4783C224.352 52.4783 223.809 51.9271 223.809 51.2036C223.809 50.6593 224.043 50.3769 224.446 50.0668ZM225.25 49.5156L225.518 49.3089C225.753 49.1229 225.887 48.9989 225.887 48.7233C225.887 48.3719 225.659 48.1377 225.317 48.1377C224.949 48.1377 224.747 48.4477 224.747 48.7233C224.747 48.8955 224.855 49.0678 224.982 49.2056L225.25 49.5156ZM226.189 51.5481L225.116 50.3424L224.915 50.5147C224.68 50.68 224.513 50.8523 224.513 51.2036C224.513 51.5137 224.781 51.8582 225.317 51.8582C225.72 51.8582 226.021 51.7204 226.189 51.5481ZM236.247 52.4094L237.956 47.5865H239.029L240.739 52.4094H239.968L239.566 51.2725H237.42L237.018 52.4094H236.247ZM237.655 50.618H239.331L238.56 48.4133H238.426L237.655 50.618ZM245.365 51.7204H246.304C247.183 51.7204 247.846 51.0245 247.846 49.9979C247.846 48.9713 247.183 48.2755 246.304 48.2755H245.365V51.7204ZM244.661 52.4094V47.5865H246.304C247.578 47.5865 248.55 48.5924 248.55 49.9979C248.55 51.4035 247.578 52.4094 246.304 52.4094H244.661ZM253.819 52.4094L252.176 47.5865H252.947L254.288 51.5826H254.422L255.763 47.5865H256.534L254.892 52.4094H253.819ZM260.49 52.4094V47.5865H261.194V52.4094H260.49ZM265.385 50.9281H266.089C266.089 51.3759 266.532 51.7893 267.229 51.7893C268 51.7893 268.302 51.4792 268.302 51.0659C268.302 50.7145 268.034 50.4802 267.497 50.3769L266.592 50.2046C265.848 50.0668 265.486 49.5914 265.486 48.93C265.486 48.1377 266.123 47.5176 267.162 47.5176C268.335 47.5176 268.939 48.2066 268.939 49.0678H268.235C268.235 48.62 267.832 48.2066 267.162 48.2066C266.491 48.2066 266.19 48.5442 266.19 48.93C266.19 49.24 266.384 49.4812 266.894 49.5845L267.631 49.7223C268.577 49.8946 269.006 50.3011 269.006 51.0659C269.006 51.8306 268.402 52.4783 267.229 52.4783C266.056 52.4783 265.385 51.7893 265.385 50.9281ZM275.275 52.4783C274.041 52.4783 273.029 51.4792 273.029 49.9979C273.029 48.5166 274.041 47.5176 275.275 47.5176C276.509 47.5176 277.521 48.5166 277.521 49.9979C277.521 51.4792 276.509 52.4783 275.275 52.4783ZM275.275 48.2066C274.397 48.2066 273.733 48.8955 273.733 49.9979C273.733 51.1003 274.397 51.7893 275.275 51.7893C276.153 51.7893 276.817 51.1003 276.817 49.9979C276.817 48.8955 276.153 48.2066 275.275 48.2066ZM281.744 52.4094V47.5865H283.856C284.627 47.5865 285.23 48.1997 285.23 49.1367C285.23 50.0737 284.627 50.6869 283.856 50.6869H283.688L285.364 52.4094H284.459L282.783 50.6869H282.448V52.4094H281.744ZM282.448 49.9979H283.822C284.198 49.9979 284.526 49.6534 284.526 49.1367C284.526 48.6199 284.198 48.2755 283.822 48.2755H282.448V49.9979ZM290.566 52.4094V50.6869L288.856 47.5865H289.634L290.868 49.8257H291.002L292.202 47.5865H292.98L291.27 50.6869V52.4094H290.566Z" fill="white"/>
</svg>
