<svg width="317" height="66" viewBox="0 0 317 66" fill="none" xmlns="http://www.w3.org/2000/svg">
<path d="M14.161 12.4259H18.6925C18.381 13.85 17.8429 15.1345 17.0782 16.2793C15.8037 18.206 13.4813 20.1048 9.6295 20.1048C4.27663 20.1048 0 15.9443 0 10.0524C0 4.16059 4.27663 0 9.6295 0C13.453 0 15.7187 1.87087 17.0215 3.76966C17.7862 4.88659 18.3244 6.14315 18.6925 7.53932H14.161C13.9628 6.95293 13.6796 6.42238 13.283 5.94768C12.6033 5.1379 11.4704 4.32812 9.6295 4.32812C6.7973 4.32812 4.53152 6.562 4.53152 10.0524C4.53152 13.5428 6.7973 15.7767 9.6295 15.7767C11.5554 15.7767 12.6883 14.9669 13.3397 14.1013C13.7079 13.6266 13.9911 13.0681 14.161 12.4259ZM21.5376 19.8256V0.279235H26.0692V7.67893H33.7161V0.279235H38.2476V19.8256H33.7161V12.2863H26.0692V19.8256H21.5376ZM40.1014 19.8256L46.8987 0.279235H53.4128L60.2101 19.8256H55.2537L53.9793 15.9163H46.3323L45.0578 19.8256H40.1014ZM47.6068 12.0071H52.7048L50.439 5.02621H49.8726L47.6068 12.0071ZM62.0562 19.8256V0.279235H71.4025C75.2259 0.279235 77.9165 2.93196 77.9165 6.98085C77.9165 10.0245 76.5287 11.5324 75.141 12.3701C74.3196 12.8448 73.4133 13.1519 72.3937 13.2636L78.483 19.8256H72.8186L67.1541 13.5428H66.5877V19.8256H62.0562ZM66.5877 9.49395H71.1192C72.3937 9.49395 73.385 8.54456 73.385 6.98085C73.385 5.41714 72.3937 4.46774 71.1192 4.46774H66.5877V9.49395ZM81.3049 19.8256V0.279235H85.8364V15.4975H94.7579V19.8256H81.3049ZM97.1523 19.8256V0.279235H110.747V4.32812H101.684V8.09778H110.18V12.0071H101.684V15.7767H110.747V19.8256H97.1523ZM113.002 13.4032H117.534C117.534 14.9669 118.808 16.1956 121.216 16.1956C123.623 16.1956 124.614 15.2182 124.614 14.1013C124.614 13.124 123.935 12.4259 121.782 12.0071L118.667 11.4486C115.127 10.8064 113.427 9.10302 113.427 6.00353C113.427 2.65272 116.089 0 120.933 0C126.172 0 129.004 2.79234 129.004 6.70161H124.473C124.473 5.16582 123.17 3.90927 120.933 3.90927C118.922 3.90927 117.959 4.88659 117.959 6.00353C117.959 6.98084 118.525 7.48346 120.366 7.81854L123.482 8.37702C127.447 9.0751 129.146 10.7505 129.146 14.1013C129.146 17.4521 126.455 20.1048 121.216 20.1048C115.976 20.1048 113.002 17.1729 113.002 13.4032ZM131.401 22.3387L132.109 15.2182H136.783L134.8 22.3387H131.401Z" fill="#140A23"/>
<path d="M0 46.6837V27.1867H9.33974C13.1605 27.1867 15.8493 29.8328 15.8493 33.8714C15.8493 36.9074 14.4625 38.4114 13.0756 39.247C12.2549 39.7205 11.3492 40.0269 10.3303 40.1383L16.4153 46.6837H10.7549L5.0944 40.4169H4.52837V46.6837H0ZM4.52837 36.3782H9.05673C10.3303 36.3782 11.3209 35.4312 11.3209 33.8714C11.3209 32.3117 10.3303 31.3647 9.05673 31.3647H4.52837V36.3782ZM19.2378 46.6837V27.1867H32.8229V31.2254H23.7662V34.9855H32.2569V38.8849H23.7662V42.6451H32.8229V46.6837H19.2378ZM36.2089 46.6837V27.1867H41.7278L47.9543 38.8849H48.5204V27.1867H53.0487V46.6837H47.5298L41.3033 34.9855H40.7372V46.6837H36.2089ZM55.8892 40.2776H60.4176C60.4176 41.8373 61.6912 43.0629 64.0969 43.0629C66.5026 43.0629 67.4932 42.088 67.4932 40.9739C67.4932 39.999 66.8139 39.3027 64.6629 38.8849L61.5497 38.3279C58.0119 37.6873 56.3138 35.9882 56.3138 32.8966C56.3138 29.5542 58.9742 26.9082 63.8139 26.9082C69.0498 26.9082 71.88 29.6935 71.88 33.5929H67.3517C67.3517 32.061 66.0498 30.8076 63.8139 30.8076C61.8044 30.8076 60.8421 31.7825 60.8421 32.8966C60.8421 33.8714 61.4082 34.3728 63.2478 34.707L66.3611 35.2641C70.3234 35.9604 72.0215 37.6316 72.0215 40.9739C72.0215 44.3162 69.3328 46.9623 64.0969 46.9623C58.861 46.9623 55.8892 44.0377 55.8892 40.2776ZM75.1245 46.6837V27.1867H79.6528V34.5677H87.2945V27.1867H91.8228V46.6837H87.2945V39.1635H79.6528V46.6837H75.1245ZM93.6753 46.6837L100.468 27.1867H106.977L113.77 46.6837H108.817L107.543 42.7843H99.9018L98.6282 46.6837H93.6753ZM101.175 38.8849H106.27L104.006 31.9217H103.44L101.175 38.8849ZM118.036 46.6837L113.224 27.1867H118.177L121.008 39.0242H121.574L124.687 27.1867H129.498L132.612 39.0242H133.178L136.008 27.1867H140.961L136.149 46.6837H130.347L127.376 34.9855H126.81L123.838 46.6837H118.036ZM151.276 37.2138L152.408 36.3782L151.417 35.2641C150.681 34.4563 149.86 33.565 149.86 31.7825C149.86 29.1364 152.125 26.9082 155.662 26.9082C159.2 26.9082 161.464 29.1364 161.464 31.9217C161.464 34.1221 160.332 35.2919 159.342 35.9604L157.785 37.0745L160.757 40.1383C160.898 39.8876 161.04 39.637 161.181 39.3306C161.379 38.8571 161.606 38.1886 161.606 37.4923H165.427C165.427 39.1635 164.917 40.5004 164.436 41.4753C164.125 42.0323 163.813 42.5058 163.446 42.9236L167.125 46.6837H162.172L160.757 45.1518C160.304 45.5139 159.795 45.8203 159.257 46.071C158.323 46.5166 156.993 46.9623 155.521 46.9623C151.191 46.9623 148.87 44.6226 148.87 41.6702C148.87 39.3027 149.832 38.3279 151.276 37.2138ZM155.379 34.4285L156.37 33.8714C157.078 33.4536 157.502 33.0637 157.502 32.2003C157.502 31.2254 156.795 30.5291 155.662 30.5291C154.53 30.5291 153.823 31.2254 153.823 32.2003C153.823 32.8966 154.247 33.3144 154.672 33.7322L155.379 34.4285ZM158.351 42.6451L154.955 39.0242L154.247 39.442C153.54 39.8598 152.974 40.4168 152.974 41.531C152.974 42.6451 153.794 43.4807 155.379 43.4807C156.37 43.4807 157.078 43.2857 157.615 43.0629C157.898 42.9514 158.153 42.8122 158.351 42.6451ZM173.912 46.6837L180.705 27.1867H187.214L194.007 46.6837H189.054L187.78 42.7843H180.139L178.865 46.6837H173.912ZM181.412 38.8849H186.507L184.243 31.9217H183.677L181.412 38.8849ZM195.852 46.6837V27.1867H205.474C209.012 27.1867 211.276 29.415 211.276 32.618C211.276 34.0385 210.739 35.0691 210.201 35.7654C209.89 36.1832 209.522 36.5174 209.154 36.796V36.9352C209.607 37.2416 210.003 37.5759 210.342 37.9936C210.937 38.7457 211.559 39.7762 211.559 41.2524C211.559 44.4555 209.295 46.6837 205.757 46.6837H195.852ZM200.38 34.9855H204.767C205.899 34.9855 206.748 34.15 206.748 33.0358C206.748 31.9217 205.899 31.0861 204.767 31.0861H200.38V34.9855ZM200.38 42.7843H205.05C206.182 42.7843 207.031 41.9487 207.031 40.8346C207.031 39.7205 206.182 38.8849 205.05 38.8849H200.38V42.7843ZM214.951 46.6837V27.1867H224.29C228.111 27.1867 230.8 29.8328 230.8 33.8714C230.8 36.9074 229.413 38.4114 228.026 39.247C227.205 39.7205 226.3 40.0269 225.281 40.1383L231.366 46.6837H225.705L220.045 40.4169H219.479V46.6837H214.951ZM219.479 36.3782H224.007C225.281 36.3782 226.271 35.4312 226.271 33.8714C226.271 32.3117 225.281 31.3647 224.007 31.3647H219.479V36.3782ZM232.066 46.6837L238.858 27.1867H245.368L252.16 46.6837H247.207L245.934 42.7843H238.292L237.019 46.6837H232.066ZM239.566 38.8849H244.66L242.396 31.9217H241.83L239.566 38.8849ZM254.005 46.6837V27.1867H258.533V34.5677H266.175V27.1867H270.703V46.6837H266.175V39.1635H258.533V46.6837H254.005ZM272.556 46.6837L279.348 27.1867H285.858L292.65 46.6837H287.698L286.424 42.7843H278.782L277.509 46.6837H272.556ZM280.056 38.8849H285.15L282.886 31.9217H282.32L280.056 38.8849ZM294.495 46.6837V27.1867H301.429L305.392 39.3027H305.958L309.92 27.1867H316.854V46.6837H312.326V34.707H311.76L307.797 46.6837H303.552L299.59 34.707H299.024V46.6837H294.495Z" fill="#140A23"/>
<path d="M5.36153 62.6793H6.45369C6.2154 63.8033 5.20266 65.2338 3.32613 65.2338C1.44959 65.2338 0 63.7522 0 61.5554C0 59.3585 1.49923 57.877 3.32613 57.877C5.15302 57.877 6.16576 59.1031 6.45369 60.3803H5.36153C5.01402 59.4096 4.20979 58.8987 3.32613 58.8987C2.02546 58.8987 1.04251 59.9205 1.04251 61.5554C1.04251 63.1902 2.02546 64.212 3.32613 64.212C4.46793 64.212 5.12323 63.4457 5.36153 62.6793ZM15.6428 65.2338C13.8159 65.2338 12.3166 63.7522 12.3166 61.5554C12.3166 59.3585 13.8159 57.877 15.6428 57.877C17.4696 57.877 18.9689 59.3585 18.9689 61.5554C18.9689 63.7522 17.4696 65.2338 15.6428 65.2338ZM15.6428 58.8987C14.3421 58.8987 13.3591 59.9205 13.3591 61.5554C13.3591 63.1902 14.3421 64.212 15.6428 64.212C16.9434 64.212 17.9264 63.1902 17.9264 61.5554C17.9264 59.9205 16.9434 58.8987 15.6428 58.8987ZM25.2215 65.1316V57.9791H28.3491C29.4909 57.9791 30.3845 58.8885 30.3845 60.2781C30.3845 61.6678 29.4909 62.5771 28.3491 62.5771H28.1009L30.5831 65.1316H29.2427L26.7605 62.5771H26.2641V65.1316H25.2215ZM26.2641 61.5554H28.2995C28.8555 61.5554 29.342 61.0445 29.342 60.2781C29.342 59.5118 28.8555 59.0009 28.2995 59.0009H26.2641V61.5554ZM37.7864 61.5554H39.8218C40.3778 61.5554 40.8643 61.0445 40.8643 60.2781C40.8643 59.5118 40.3778 59.0009 39.8218 59.0009H37.7864V61.5554ZM36.7439 65.1316V57.9791H39.8714C41.0132 57.9791 41.9068 58.8885 41.9068 60.2781C41.9068 61.6678 41.0132 62.5771 39.8714 62.5771H37.7864V65.1316H36.7439ZM51.1877 65.2338C49.3608 65.2338 47.8616 63.7522 47.8616 61.5554C47.8616 59.3585 49.3608 57.877 51.1877 57.877C53.0146 57.877 54.5139 59.3585 54.5139 61.5554C54.5139 63.7522 53.0146 65.2338 51.1877 65.2338ZM51.1877 58.8987C49.8871 58.8987 48.9041 59.9205 48.9041 61.5554C48.9041 63.1902 49.8871 64.212 51.1877 64.212C52.4884 64.212 53.4713 63.1902 53.4713 61.5554C53.4713 59.9205 52.4884 58.8987 51.1877 58.8987ZM60.7665 65.1316V57.9791H63.8941C65.0359 57.9791 65.9295 58.8885 65.9295 60.2781C65.9295 61.6678 65.0359 62.5771 63.8941 62.5771H63.6458L66.128 65.1316H64.7877L62.3055 62.5771H61.809V65.1316H60.7665ZM61.809 61.5554H63.8444C64.4004 61.5554 64.8869 61.0445 64.8869 60.2781C64.8869 59.5118 64.4004 59.0009 63.8444 59.0009H61.809V61.5554ZM71.5442 65.1316L74.076 57.9791H75.6646L78.1964 65.1316H77.0546L76.4589 63.4457H73.2817L72.686 65.1316H71.5442ZM73.6292 62.475H76.1114L74.9696 59.2053H74.771L73.6292 62.475ZM85.0498 65.1316V59.0009H82.8654V57.9791H88.2766V59.0009H86.0923V65.1316H85.0498ZM94.2835 65.1316V57.9791H98.8507V59.0009H95.326V61.0445H98.6522V62.0663H95.326V64.1098H98.8507V65.1316H94.2835ZM104.905 66.0001L105.103 63.9566H106.245L105.699 66.0001H104.905ZM121.047 64.1098H122.437C123.737 64.1098 124.72 63.0778 124.72 61.5554C124.72 60.0329 123.737 59.0009 122.437 59.0009H121.047V64.1098ZM120.004 65.1316V57.9791H122.437C124.323 57.9791 125.763 59.4709 125.763 61.5554C125.763 63.6398 124.323 65.1316 122.437 65.1316H120.004ZM132.02 65.1316V57.9791H133.063V65.1316H132.02ZM139.266 62.9348H140.308C140.308 63.5989 140.964 64.212 141.996 64.212C143.138 64.212 143.585 63.7522 143.585 63.1391C143.585 62.618 143.188 62.2706 142.393 62.1173L141.053 61.8619C139.951 61.6575 139.415 60.9525 139.415 59.9716C139.415 58.7966 140.358 57.877 141.897 57.877C143.634 57.877 144.528 58.8987 144.528 60.176H143.485C143.485 59.5118 142.89 58.8987 141.897 58.8987C140.904 58.8987 140.457 59.3994 140.457 59.9716C140.457 60.4314 140.745 60.789 141.5 60.9423L142.592 61.1467C143.992 61.4021 144.627 62.0049 144.627 63.1391C144.627 64.2733 143.734 65.2338 141.996 65.2338C140.259 65.2338 139.266 64.212 139.266 62.9348ZM151.925 61.5554H153.96C154.516 61.5554 155.003 61.0445 155.003 60.2781C155.003 59.5118 154.516 59.0009 153.96 59.0009H151.925V61.5554ZM150.882 65.1316V57.9791H154.01C155.152 57.9791 156.045 58.8885 156.045 60.2781C156.045 61.6678 155.152 62.5771 154.01 62.5771H151.925V65.1316H150.882ZM162.248 62.2706V57.9791H163.291V62.2706C163.291 63.4457 164.036 64.212 165.028 64.212C166.021 64.212 166.766 63.4457 166.766 62.2706V57.9791H167.808V62.2706C167.808 64.069 166.667 65.2338 165.028 65.2338C163.39 65.2338 162.248 64.069 162.248 62.2706ZM175.953 65.1316V59.0009H173.768V57.9791H179.179V59.0009H176.995V65.1316H175.953ZM185.186 65.1316V57.9791H189.754V59.0009H186.229V61.0445H189.555V62.0663H186.229V64.1098H189.754V65.1316H185.186ZM195.758 62.9348H196.8C196.8 63.5989 197.456 64.212 198.488 64.212C199.63 64.212 200.077 63.7522 200.077 63.1391C200.077 62.618 199.68 62.2706 198.885 62.1173L197.545 61.8619C196.443 61.6575 195.907 60.9525 195.907 59.9716C195.907 58.7966 196.85 57.877 198.389 57.877C200.127 57.877 201.02 58.8987 201.02 60.176H199.978C199.978 59.5118 199.382 58.8987 198.389 58.8987C197.396 58.8987 196.949 59.3994 196.949 59.9716C196.949 60.4314 197.237 60.789 197.992 60.9423L199.084 61.1467C200.484 61.4021 201.119 62.0049 201.119 63.1391C201.119 64.2733 200.226 65.2338 198.488 65.2338C196.751 65.2338 195.758 64.212 195.758 62.9348ZM215.37 61.6575L215.717 61.351L215.32 60.9423C214.923 60.5336 214.774 60.227 214.774 59.614C214.774 58.6331 215.519 57.877 216.66 57.877C217.802 57.877 218.547 58.6944 218.547 59.6651C218.547 60.3803 218.1 60.8503 217.703 61.1467L217.157 61.5554L218.547 63.088C218.606 62.9552 218.666 62.8122 218.716 62.6691C218.805 62.4239 218.894 62.0969 218.894 61.7597H219.937C219.937 62.3728 219.758 62.8837 219.589 63.2413C219.48 63.4559 219.371 63.6398 219.242 63.8033L220.483 65.1316H219.143L218.547 64.4674C218.388 64.6105 218.209 64.7433 218.011 64.8557C217.663 65.0499 217.216 65.2338 216.66 65.2338C215.231 65.2338 214.426 64.4163 214.426 63.3435C214.426 62.5363 214.774 62.1173 215.37 61.6575ZM216.561 60.8401L216.958 60.5336C217.306 60.2577 217.504 60.0738 217.504 59.6651C217.504 59.144 217.167 58.7966 216.66 58.7966C216.114 58.7966 215.817 59.2564 215.817 59.6651C215.817 59.9205 215.975 60.176 216.164 60.3803L216.561 60.8401ZM217.951 63.8544L216.363 62.0663L216.065 62.3217C215.717 62.5669 215.469 62.8224 215.469 63.3435C215.469 63.8033 215.866 64.3142 216.66 64.3142C217.256 64.3142 217.703 64.1098 217.951 63.8544ZM232.844 65.1316L235.376 57.9791H236.965L239.497 65.1316H238.355L237.759 63.4457H234.582L233.986 65.1316H232.844ZM234.929 62.475H237.412L236.27 59.2053H236.071L234.929 62.475ZM246.347 64.1098H247.737C249.038 64.1098 250.021 63.0778 250.021 61.5554C250.021 60.0329 249.038 59.0009 247.737 59.0009H246.347V64.1098ZM245.305 65.1316V57.9791H247.737C249.624 57.9791 251.064 59.4709 251.064 61.5554C251.064 63.6398 249.624 65.1316 247.737 65.1316H245.305ZM258.865 65.1316L256.433 57.9791H257.574L259.56 63.9055H259.759L261.744 57.9791H262.886L260.454 65.1316H258.865ZM268.744 65.1316V57.9791H269.787V65.1316H268.744ZM275.992 62.9348H277.035C277.035 63.5989 277.69 64.212 278.723 64.212C279.864 64.212 280.311 63.7522 280.311 63.1391C280.311 62.618 279.914 62.2706 279.12 62.1173L277.779 61.8619C276.677 61.6575 276.141 60.9525 276.141 59.9716C276.141 58.7966 277.084 57.877 278.623 57.877C280.361 57.877 281.254 58.8987 281.254 60.176H280.212C280.212 59.5118 279.616 58.8987 278.623 58.8987C277.63 58.8987 277.184 59.3994 277.184 59.9716C277.184 60.4314 277.472 60.789 278.226 60.9423L279.318 61.1467C280.718 61.4021 281.354 62.0049 281.354 63.1391C281.354 64.2733 280.46 65.2338 278.723 65.2338C276.985 65.2338 275.992 64.212 275.992 62.9348ZM290.637 65.2338C288.81 65.2338 287.311 63.7522 287.311 61.5554C287.311 59.3585 288.81 57.877 290.637 57.877C292.464 57.877 293.963 59.3585 293.963 61.5554C293.963 63.7522 292.464 65.2338 290.637 65.2338ZM290.637 58.8987C289.337 58.8987 288.354 59.9205 288.354 61.5554C288.354 63.1902 289.337 64.212 290.637 64.212C291.938 64.212 292.921 63.1902 292.921 61.5554C292.921 59.9205 291.938 58.8987 290.637 58.8987ZM300.216 65.1316V57.9791H303.344C304.485 57.9791 305.379 58.8885 305.379 60.2781C305.379 61.6678 304.485 62.5771 303.344 62.5771H303.095L305.577 65.1316H304.237L301.755 62.5771H301.258V65.1316H300.216ZM301.258 61.5554H303.294C303.85 61.5554 304.336 61.0445 304.336 60.2781C304.336 59.5118 303.85 59.0009 303.294 59.0009H301.258V61.5554ZM313.28 65.1316V62.5771L310.748 57.9791H311.9L313.727 61.2999H313.925L315.702 57.9791H316.854L314.322 62.5771V65.1316H313.28Z" fill="#140A23"/>
</svg>
